<svg xmlns="http://www.w3.org/2000/svg" version="1.1" xmlns:xlink="http://www.w3.org/1999/xlink" xmlns:svgjs="http://svgjs.dev/svgjs" width="1440" height="560" preserveAspectRatio="none" viewBox="0 0 1440 560"><g mask="url(&quot;#SvgjsMask1505&quot;)" fill="none"><rect width="1440" height="560" x="0" y="0" fill="url(&quot;#SvgjsLinearGradient1506&quot;)"></rect><path d="M1440 0L1017.6800000000001 0L1440 252.17z" fill="rgba(255, 255, 255, .1)"></path><path d="M1017.6800000000001 0L1440 252.17L1440 403.03L877.3600000000001 0z" fill="rgba(255, 255, 255, .075)"></path><path d="M877.36 0L1440 403.03L1440 484.52L333.51 0z" fill="rgba(255, 255, 255, .05)"></path><path d="M333.51 0L1440 484.52L1440 513.91L322.19 0z" fill="rgba(255, 255, 255, .025)"></path><path d="M0 560L604.69 560L0 402.83000000000004z" fill="rgba(0, 0, 0, .1)"></path><path d="M0 402.83000000000004L604.69 560L903.83 560L0 336.76000000000005z" fill="rgba(0, 0, 0, .075)"></path><path d="M0 336.76L903.83 560L941.4300000000001 560L0 155.64z" fill="rgba(0, 0, 0, .05)"></path><path d="M0 155.64L941.4300000000001 560L1102.98 560L0 70.26999999999998z" fill="rgba(0, 0, 0, .025)"></path></g><defs><mask id="SvgjsMask1505"><rect width="1440" height="560" fill="#ffffff"></rect></mask><linearGradient x1="15.28%" y1="-39.29%" x2="84.72%" y2="139.29%" gradientUnits="userSpaceOnUse" id="SvgjsLinearGradient1506"><stop stop-color="#0e2a47" offset="0"></stop><stop stop-color="rgba(37, 0, 158, 1)" offset="1"></stop></linearGradient></defs></svg>